# xmcd
#
# Track frame offsets:
#	150
#	17960
#	28039
#	41542
#	54983
#	64370
#	75160
#	89192
#	101965
#	114853
#	126899
#	139056
#	154052
#	168053
#	183204
#	199041
#	209535
#	222815
#	238462
#	250231
#	264457
#	281455
#	293648
#	307512
#	323552
#	339201
#
# Disc length: 4734 seconds
#
# Revision: 0
# Processed by: cddbd v1.5.2PL0 Copyright (c) Steve Scherf et al.
# Submitted via: dBpowerAMP V4.0
#
DISCID=6c127c1a
DTITLE=George Strait - 50 Number Ones
DYEAR=2004
DGENRE=Country
TTITLE0=I Hate Everything
TTITLE1=Fool Hearted Memory
TTITLE2=A Fire I Can´t Put Out
TTITLE3=You Look So Good In Love
TTITLE4=Right or Wrong
TTITLE5=Let´s fall To Pieces Together
TTITLE6=Does Fort Worth Ever Cross Your Mind
TTITLE7=The Chair
TTITLE8=Nobody In His Right Mind Would´ve Left Her
TTITLE9=It Ain´t Cool To Be Crazy About You
TTITLE10=Ocean Front Property
TTITLE11=All My Ex´s Live In Texas
TTITLE12=Am I Blue
TTITLE13=Famous Last Words Of A Fool
TTITLE14=Baby Blue
TTITLE15=If You Ain´t Lovin´(You Ain´t Livin´)
TTITLE16=Baby´s Gotten Good At Goodbye
TTITLE17=What´s Going On In Your World
TTITLE18=Ace In The Hole
TTITLE19=Love Without End, Amen
TTITLE20=I´ve Come To Expect It From You
TTITLE21=If I Know Me
TTITLE22=You Know Me Better Than That
TTITLE23=The Chill Of An Early Fall
TTITLE24=So Much Like My Dad
TTITLE25=I Cross My Heart
EXTD=
EXTT0=
EXTT1=
EXTT2=
EXTT3=
EXTT4=
EXTT5=
EXTT6=
EXTT7=
EXTT8=
EXTT9=
EXTT10=
EXTT11=
EXTT12=
EXTT13=
EXTT14=
EXTT15=
EXTT16=
EXTT17=
EXTT18=
EXTT19=
EXTT20=
EXTT21=
EXTT22=
EXTT23=
EXTT24=
EXTT25=
PLAYORDER=
